<svg xmlns="http://www.w3.org/2000/svg" xmlns:svg="http://www.w3.org/2000/svg" id="svg2" width="761.573" height="740.325" version="1.1"><metadata id="metadata7"/><g id="layer1" transform="translate(8.8111836,-148.45869)"><path style="fill:#326de5;fill-opacity:1;stroke:#326de5;stroke-width:380.98913574;stroke-linejoin:round;stroke-miterlimit:80.40000153;stroke-opacity:1;stroke-dasharray:none" id="path3830" d="M 2.6620553,368.96948 -380.97303,521.38006 -739.32498,316.46852 l -63.22249,-407.931099 279.5148,-303.770211 411.77173,29.13584 233.95617,340.102005 z" transform="matrix(0.16160512,0.49827496,-0.50393927,0.15142774,452.72272,690.70609)"/><g id="g3832" transform="translate(1.2915278,-1.3229382)"><path id="path3811" d="m 354.05253,98.7715 c 0,15.4372 -12.51432,27.95151 -27.95152,27.95151 -15.43719,0 -27.95151,-12.51431 -27.95151,-27.95151 0,-15.437196 12.51432,-27.951516 27.95151,-27.951516 15.4372,0 27.95152,12.51432 27.95152,27.951516 z" transform="matrix(0.80952381,0,0,0.76190476,106.54427,196.57542)" style="fill:none;stroke:#fff;stroke-width:25.46623993;stroke-miterlimit:4;stroke-opacity:1;stroke-dasharray:none"/><path id="path3811-3" d="m 354.05253,98.7715 c 0,15.4372 -12.51432,27.95151 -27.95152,27.95151 -15.43719,0 -27.95151,-12.51431 -27.95151,-27.95151 0,-15.437196 12.51432,-27.951516 27.95151,-27.951516 15.4372,0 27.95152,12.51432 27.95152,27.951516 z" transform="matrix(0.80952381,0,0,0.76190476,-87.792239,296.41611)" style="fill:none;stroke:#fff;stroke-width:25.46623993;stroke-miterlimit:4;stroke-opacity:1;stroke-dasharray:none"/><path id="path3811-6" d="m 354.05253,98.7715 c 0,15.4372 -12.51432,27.95151 -27.95152,27.95151 -15.43719,0 -27.95151,-12.51431 -27.95151,-27.95151 0,-15.437196 12.51432,-27.951516 27.95151,-27.951516 15.4372,0 27.95152,12.51432 27.95152,27.951516 z" transform="matrix(0.80952381,0,0,0.76190476,-141.70912,508.05594)" style="fill:none;stroke:#fff;stroke-width:25.46623993;stroke-miterlimit:4;stroke-opacity:1;stroke-dasharray:none"/><path id="path3811-0" d="m 354.05253,98.7715 c 0,15.4372 -12.51432,27.95151 -27.95152,27.95151 -15.43719,0 -27.95151,-12.51431 -27.95151,-27.95151 0,-15.437196 12.51432,-27.951516 27.95151,-27.951516 15.4372,0 27.95152,12.51432 27.95152,27.951516 z" transform="matrix(0.80952381,0,0,0.76190476,1.3933301,679.09606)" style="fill:none;stroke:#fff;stroke-width:25.46623993;stroke-miterlimit:4;stroke-opacity:1;stroke-dasharray:none"/><path id="path3811-62" d="m 354.05253,98.7715 c 0,15.4372 -12.51432,27.95151 -27.95152,27.95151 -15.43719,0 -27.95151,-12.51431 -27.95151,-27.95151 0,-15.437196 12.51432,-27.951516 27.95151,-27.951516 15.4372,0 27.95152,12.51432 27.95152,27.951516 z" transform="matrix(0.80952381,0,0,0.76190476,218.35726,680.43401)" style="fill:none;stroke:#fff;stroke-width:25.46623993;stroke-miterlimit:4;stroke-opacity:1;stroke-dasharray:none"/><path id="path3811-61" d="m 354.05253,98.7715 c 0,15.4372 -12.51432,27.95151 -27.95152,27.95151 -15.43719,0 -27.95151,-12.51431 -27.95151,-27.95151 0,-15.437196 12.51432,-27.951516 27.95151,-27.951516 15.4372,0 27.95152,12.51432 27.95152,27.951516 z" transform="matrix(0.80952381,0,0,0.76190476,358.79765,510.05594)" style="fill:none;stroke:#fff;stroke-width:25.46623993;stroke-miterlimit:4;stroke-opacity:1;stroke-dasharray:none"/><path id="path3811-8" d="m 354.05253,98.7715 c 0,15.4372 -12.51432,27.95151 -27.95152,27.95151 -15.43719,0 -27.95151,-12.51431 -27.95151,-27.95151 0,-15.437196 12.51432,-27.951516 27.95151,-27.951516 15.4372,0 27.95152,12.51432 27.95152,27.951516 z" transform="matrix(0.80952381,0,0,0.76190476,305.54282,295.74714)" style="fill:none;stroke:#fff;stroke-width:25.46623993;stroke-miterlimit:4;stroke-opacity:1;stroke-dasharray:none"/><path id="path3866" d="m 393.98326,142.69531 c 0,118.35184 -95.94312,214.29495 -214.29495,214.29495 -118.351835,0 -214.294954,-95.94311 -214.294954,-214.29495 0,-118.351832 95.943119,-214.29495 214.294954,-214.29495 118.35183,0 214.29495,95.943118 214.29495,214.29495 z" transform="matrix(0.77639752,0,0,0.77018634,233.6833,422.16745)" style="fill:none;stroke:#fff;stroke-width:25.86366272;stroke-miterlimit:4;stroke-opacity:1;stroke-dasharray:none"/><path id="path3811-7" d="m 354.05253,98.7715 c 0,15.4372 -12.51432,27.95151 -27.95152,27.95151 -15.43719,0 -27.95151,-12.51431 -27.95151,-27.95151 0,-15.437196 12.51432,-27.951516 27.95151,-27.951516 15.4372,0 27.95152,12.51432 27.95152,27.951516 z" transform="matrix(1.8095238,0,0,1.8095238,-218.22572,352.00902)" style="fill:none;stroke:#fff;stroke-width:11.05263138;stroke-miterlimit:4;stroke-opacity:1;stroke-dasharray:none"/><path id="path3907" d="m 379.34199,137.37121 0,192.99856" transform="translate(-8.8111836,148.45869)" style="fill:none;stroke:#fff;stroke-width:20;stroke-linecap:butt;stroke-linejoin:miter;stroke-miterlimit:4;stroke-opacity:1;stroke-dasharray:none"/><path id="path3907-9" d="M 185.93911,382.72636 336.83447,503.05524" style="fill:none;stroke:#fff;stroke-width:20;stroke-linecap:butt;stroke-linejoin:miter;stroke-miterlimit:4;stroke-opacity:1;stroke-dasharray:none"/><path id="path3907-2" d="m 134.99852,582.50155 188.15754,-42.9556" style="fill:none;stroke:#fff;stroke-width:20;stroke-linecap:butt;stroke-linejoin:miter;stroke-miterlimit:4;stroke-opacity:1;stroke-dasharray:none"/><path id="path3907-9-0" d="M 268.549,742.89691 352.27493,569.00493" style="fill:none;stroke:#fff;stroke-width:20;stroke-linecap:butt;stroke-linejoin:miter;stroke-miterlimit:4;stroke-opacity:1;stroke-dasharray:none"/><path id="path3907-9-2" d="M 475.93101,742.67896 392.17473,568.8016" style="fill:none;stroke:#fff;stroke-width:20;stroke-linecap:butt;stroke-linejoin:miter;stroke-miterlimit:4;stroke-opacity:1;stroke-dasharray:none"/><path id="path3907-2-3" d="M 609.16393,581.84573 420.99889,538.92298" style="fill:none;stroke:#fff;stroke-width:20;stroke-linecap:butt;stroke-linejoin:miter;stroke-miterlimit:4;stroke-opacity:1;stroke-dasharray:none"/><path id="path3907-9-0-7" d="M 557.74726,382.32729 406.87291,502.68252" style="fill:none;stroke:#fff;stroke-width:20;stroke-linecap:butt;stroke-linejoin:miter;stroke-miterlimit:4;stroke-opacity:1;stroke-dasharray:none"/></g></g></svg>